
<svg xmlns="http://www.w3.org/2000/svg" version="1.1" xmlns:xlink="http://www.w3.org/1999/xlink" preserveAspectRatio="none" x="0px" y="0px" width="155px" height="245px" viewBox="0 0 155 245">
<defs>
<g id="carta_0_Layer0_0_FILL">
<path fill="#FFFFFF" stroke="none" d="
M 155 4
Q 155 0 151 0
L 4 0
Q 0 0 0 4
L 0 241
Q 0 245 4 245
L 151 245
Q 155 245 155 241
L 155 4
M 13.7 15.65
L 142.7 15.65 142.7 229.65 13.7 229.65 13.7 15.65
M 95.6 91.15
L 90.25 96.55 85.8 101.05 78.8 108.2 71.85 101.15 67.35 96.6 61.95 91.1 56.2 85.25 52.1 81.1 52.1 86.35 47.25 86.35 47.25 91.25 42.25 91.25 42.25 95.85 37.5 96.25 41.4 100.15 47.2 105.9 52.65 111.35 57.35 116 64.25 122.9 57.55 129.75 52.8 134.55 47.6 139.8 41.85 145.65 37.1 150.45 42.5 150.45 42.5 154.8 47.1 154.8 47.1 159.2 52.25 159.2 52.25 163.8 56.25 159.85 62.15 154 67.25 148.9 72.1 144.05 78.8 137.4 85.55 144.15 90.4 148.95 95.4 153.9 101.35 159.85 104.85 163.35 104.85 158.75 110 158.75 110 154.35 114.6 154.35 114.6 150 120 150 115.75 145.7 109.85 139.7 104.85 134.65 100.25 129.95 93.3 122.9 100.45 115.8 105.05 111.25 110.3 106 116.2 100.1 119.6 96.7 114.85 96.3 114.85 91.7 109.85 91.7 109.85 86.8 105 86.8 105 81.55 101.4 85.25 95.6 91.15 Z"/>

<path fill="#FEFEFE" stroke="none" d="
M 142.7 15.65
L 13.7 15.65 13.7 229.65 142.7 229.65 142.7 15.65
M 17.5 18.65
L 139.5 18.65 139.5 226.65 17.5 226.65 17.5 18.65 Z"/>

<path fill="#DF1E2E" stroke="none" d="
M 139.5 18.65
L 17.5 18.65 17.5 226.65 139.5 226.65 139.5 18.65
M 130.85 36.15
L 130.85 42.95 130.85 51.6 130.85 61.4 130.85 70.2 130.85 81.8 130.85 97.7 130.85 147.6 130.85 163.55 130.85 174.7 130.85 183.85 130.85 194.15 130.85 202.05 130.85 209.9 130.85 217.2 116.85 217.2 87.75 217.2 69.2 217.2 36.55 217.2 25.85 217.2 25.85 211.85 25.85 202 25.85 193.35 25.85 183.7 25.85 171.55 25.85 160.2 25.85 147.85 25.85 97.45 25.85 85.2 25.85 73.35 25.85 61.6 25.85 52.55 25.85 51.3 25.85 43.15 25.85 34.35 25.85 27.2 40.95 27.2 63.35 27.2 78.5 27.2 112.85 27.2 130.85 27.2 130.85 36.15 Z"/>

<path fill="#04455C" stroke="none" d="
M 25.85 211.85
Q 31.05 214.85 36.55 217.2
L 69.2 217.2
Q 45.2 215.1 25.85 202
L 25.85 211.85
M 36.55 217.2
Q 31.05 214.85 25.85 211.85
L 25.85 217.2 36.55 217.2
M 130.85 209.9
L 130.85 202.05
Q 124.85 206.1 118.35 209.15 104.1 215.75 87.75 217.2
L 116.85 217.2
Q 118.35 216.65 119.65 216.05 125.4 213.35 130.85 209.9
M 130.85 217.2
L 130.85 209.9
Q 125.4 213.35 119.65 216.05 118.35 216.65 116.85 217.2
L 130.85 217.2
M 25.85 183.7
L 25.85 193.35
Q 48.2 210.55 77.7 210.95 48.2 210.55 25.85 193.35
L 25.85 202
Q 45.2 215.1 69.2 217.2
L 87.75 217.2
Q 104.1 215.75 118.35 209.15 124.85 206.1 130.85 202.05
L 130.85 194.15
Q 123.75 199.5 115.9 203.15 113.9 204.1 111.85 204.9 113.9 204.1 115.9 203.15 123.75 199.5 130.85 194.15
L 130.85 183.85
Q 122.2 191.4 112.25 196 96.85 203.15 78.5 203.15 62.55 203.15 48.8 197.8 62.55 203.15 78.5 203.15 96.85 203.15 112.25 196 122.2 191.4 130.85 183.85
L 130.85 174.7
Q 121.5 183.85 110.5 189 96.5 195.5 79.9 195.5 50.05 195.5 29 174.9 28.6 174.5 28.25 174.05 27 172.8 25.85 171.55
L 25.85 183.7
Q 31.9 188.95 38.55 192.85 31.9 188.95 25.85 183.7
M 89.4 210.4
Q 88 210.55 86.6 210.65 88 210.55 89.4 210.4
M 98.75 208.9
Q 96.45 209.4 94.15 209.8 96.45 209.4 98.75 208.9
M 25.85 160.2
L 25.85 171.55
Q 27 172.8 28.25 174.05 28.6 174.5 29 174.9 50.05 195.5 79.9 195.5 96.5 195.5 110.5 189 121.5 183.85 130.85 174.7
L 130.85 163.55
Q 128.6 166.35 125.95 168.95 124.95 169.95 123.95 170.9 124.95 169.95 125.95 168.95 128.6 166.35 130.85 163.55
L 130.85 147.6
Q 126.65 156.3 119.3 163.65 111.7 171.3 102.65 175.5 91.55 180.65 78.3 180.65 54.65 180.65 37.9 164.3 37.6 164 37.3 163.65 30 156.4 25.85 147.85
L 25.85 160.2
Q 29.15 164.75 33.35 168.95 33.7 169.35 34 169.75 52.9 188.2 79.65 188.2 91 188.2 100.95 184.85 91 188.2 79.65 188.2 52.9 188.2 34 169.75 33.7 169.35 33.35 168.95 29.15 164.75 25.85 160.2
M 120 174.3
Q 119.5 174.7 119.05 175.05 119.5 174.7 120 174.3
M 115.05 177.95
Q 112.05 179.9 108.9 181.5 112.05 179.9 115.05 177.95
M 25.85 27.2
L 25.85 34.35
Q 33.1 30.1 40.95 27.2
L 25.85 27.2
M 63.35 28.65
L 63.35 27.2 40.95 27.2
Q 33.1 30.1 25.85 34.35
L 25.85 43.15
Q 39.4 33.95 55.3 30.2 59.25 29.25 63.35 28.65
M 119.3 81.65
Q 111.7 74 102.65 69.8 91.55 64.65 78.3 64.65 54.65 64.65 37.9 81 37.6 81.3 37.3 81.65 30 88.9 25.85 97.45
L 25.85 147.85
Q 30 156.4 37.3 163.65 37.6 164 37.9 164.3 54.65 180.65 78.3 180.65 91.55 180.65 102.65 175.5 111.7 171.3 119.3 163.65 126.65 156.3 130.85 147.6
L 130.85 97.7
Q 126.65 89 119.3 81.65
M 87.9 72.75
Q 89.15 72.95 90.4 73.25 89.15 72.95 87.9 72.75
M 95.5 74.7
Q 97.8 75.45 100 76.5 107.9 80.15 114.5 86.8 129.3 101.5 129.3 122.5 129.3 143.45 114.5 158.2 107.9 164.85 100 168.5 90.35 173 78.8 173 90.35 173 100 168.5 107.9 164.85 114.5 158.2 129.3 143.45 129.3 122.5 129.3 101.5 114.5 86.8 107.9 80.15 100 76.5 97.8 75.45 95.5 74.7
M 101.4 85.25
L 105 81.55 105 86.8 109.85 86.8 109.85 91.7 114.85 91.7 114.85 96.3 119.6 96.7 116.2 100.1
Q 122.3 110 122.3 122.5 122.3 135.45 115.75 145.7
L 120 150 114.6 150 114.6 154.35 110 154.35 110 158.75 104.85 158.75 104.85 163.35 101.35 159.85
Q 100.65 160.25 100 160.65 90.55 166 78.8 166 66.25 166 56.25 159.85
L 52.25 163.8 52.25 159.2 47.1 159.2 47.1 154.8 42.5 154.8 42.5 150.45 37.1 150.45 41.85 145.65
Q 35.3 135.45 35.3 122.5 35.3 110 41.4 100.15
L 37.5 96.25 42.25 95.85 42.25 91.25 47.25 91.25 47.25 86.35 52.1 86.35 52.1 81.1 56.2 85.25
Q 66.2 79 78.8 79 90.55 79 100 84.4 100.7 84.8 101.4 85.25
M 43.1 86.8
Q 43.35 86.5 43.65 86.25 58.2 72 78.8 72 80.7 72 82.6 72.15 80.7 72 78.8 72 58.2 72 43.65 86.25 43.35 86.5 43.1 86.8 28.3 101.5 28.3 122.5 28.3 143.45 43.1 158.2 43.35 158.5 43.65 158.75 53.7 168.6 66.7 171.65 53.7 168.6 43.65 158.75 43.35 158.5 43.1 158.2 28.3 143.45 28.3 122.5 28.3 101.5 43.1 86.8
M 100.45 115.8
L 93.3 122.9 100.25 129.95
Q 100.5 129.15 100.7 128.35 101.4 125.6 101.4 122.55 101.4 119.5 100.7 116.75 100.6 116.25 100.45 115.8
M 107.35 122.75
Q 107.35 116.5 105.05 111.25
L 100.45 115.8
Q 100.6 116.25 100.7 116.75 101.4 119.5 101.4 122.55 101.4 125.6 100.7 128.35 100.5 129.15 100.25 129.95
L 104.85 134.65
Q 107.35 129.2 107.35 122.75
M 110.3 106
L 105.05 111.25
Q 107.35 116.5 107.35 122.75 107.35 129.2 104.85 134.65
L 109.85 139.7
Q 114.2 132 114.2 122.45 114.2 113.4 110.3 106
M 116.2 100.1
L 110.3 106
Q 114.2 113.4 114.2 122.45 114.2 132 109.85 139.7
L 115.75 145.7
Q 122.3 135.45 122.3 122.5 122.3 110 116.2 100.1
M 78.7 157.95
Q 69.55 157.95 62.15 154
L 56.25 159.85
Q 66.25 166 78.8 166 90.55 166 100 160.65 100.65 160.25 101.35 159.85
L 95.4 153.9
Q 87.9 157.95 78.7 157.95
M 67.25 148.9
L 62.15 154
Q 69.55 157.95 78.7 157.95 87.9 157.95 95.4 153.9
L 90.4 148.95
Q 85.1 151.25 78.85 151.25 72.55 151.25 67.25 148.9
M 72.1 144.05
Q 75.3 145.05 78.9 145.05 82.4 145.05 85.55 144.15
L 78.8 137.4 72.1 144.05
M 78.9 145.05
Q 75.3 145.05 72.1 144.05
L 67.25 148.9
Q 72.55 151.25 78.85 151.25 85.1 151.25 90.4 148.95
L 85.55 144.15
Q 82.4 145.05 78.9 145.05
M 57.35 116
Q 56.4 119.1 56.4 122.55 56.4 124.9 56.85 127.05 57.1 128.4 57.55 129.75
L 64.25 122.9 57.35 116
M 52.65 111.35
Q 50.35 116.55 50.35 122.75 50.35 125.05 50.7 127.25 51.25 131.1 52.8 134.55
L 57.55 129.75
Q 57.1 128.4 56.85 127.05 56.4 124.9 56.4 122.55 56.4 119.1 57.35 116
L 52.65 111.35
M 52.65 111.35
L 47.2 105.9
Q 44.55 110.8 43.65 116.5 43.2 119.4 43.2 122.45 43.2 125.5 43.65 128.4 44.6 134.55 47.6 139.8
L 52.8 134.55
Q 51.25 131.1 50.7 127.25 50.35 125.05 50.35 122.75 50.35 116.55 52.65 111.35
M 47.2 105.9
L 41.4 100.15
Q 35.3 110 35.3 122.5 35.3 135.45 41.85 145.65
L 47.6 139.8
Q 44.6 134.55 43.65 128.4 43.2 125.5 43.2 122.45 43.2 119.4 43.65 116.5 44.55 110.8 47.2 105.9
M 71.85 101.15
L 78.8 108.2 85.8 101.05
Q 82.55 100.05 78.9 100.05 75.15 100.05 71.85 101.15
M 78.85 94.25
Q 72.6 94.25 67.35 96.6
L 71.85 101.15
Q 75.15 100.05 78.9 100.05 82.55 100.05 85.8 101.05
L 90.25 96.55
Q 85.05 94.25 78.85 94.25
M 101.4 85.25
Q 100.7 84.8 100 84.4 90.55 79 78.8 79 66.2 79 56.2 85.25
L 61.95 91.1
Q 69.45 86.95 78.7 86.95 88 86.95 95.6 91.15
L 101.4 85.25
M 90.25 96.55
L 95.6 91.15
Q 88 86.95 78.7 86.95 69.45 86.95 61.95 91.1
L 67.35 96.6
Q 72.6 94.25 78.85 94.25 85.05 94.25 90.25 96.55
M 110.5 55.95
Q 106.4 54.05 102.15 52.75 91.65 49.5 79.9 49.5 51.75 49.5 31.45 67.8 30.2 68.9 29 70.1 28.6 70.4 28.25 70.85 27 72.1 25.85 73.35
L 25.85 85.2
Q 29.15 80.6 33.35 76.4 33.7 76 34 75.7 33.7 76 33.35 76.4 29.15 80.6 25.85 85.2
L 25.85 97.45
Q 30 88.9 37.3 81.65 37.6 81.3 37.9 81 54.65 64.65 78.3 64.65 91.55 64.65 102.65 69.8 111.7 74 119.3 81.65 126.65 89 130.85 97.7
L 130.85 81.8
Q 128.6 79 125.95 76.4 117.35 67.75 107.1 63 94.6 57.2 79.65 57.2 68.45 57.2 58.6 60.45 68.45 57.2 79.65 57.2 94.6 57.2 107.1 63 117.35 67.75 125.95 76.4 128.6 79 130.85 81.8
L 130.85 70.2
Q 128.7 68.1 126.5 66.2 119 59.85 110.5 55.95
M 45.05 66.9
Q 47.85 65.1 50.85 63.65 47.85 65.1 45.05 66.9
M 38.05 72.05
Q 39.35 70.95 40.7 69.95 39.35 70.95 38.05 72.05
M 130.85 42.95
Q 129.1 41.75 127.3 40.65 122.95 38 118.35 35.9 100.5 27.7 79.4 27.55 78.95 27.55 78.5 27.55 75.55 27.55 72.7 27.7 67.9 27.95 63.35 28.65 59.25 29.25 55.3 30.2 39.4 33.95 25.85 43.15
L 25.85 51.3 27.5 51.3
Q 37.3 44.05 48.55 40.05 37.3 44.05 27.5 51.3 26.65 51.9 25.85 52.55
L 25.85 61.6
Q 28.6 59.15 31.55 57.05 43.9 47.95 58.65 44.45 62 43.6 65.5 43.1 71.8 42.15 78.5 42.15 81.9 42.15 85.15 42.4 95 43.1 103.95 46.05 95 43.1 85.15 42.4 81.9 42.15 78.5 42.15 71.8 42.15 65.5 43.1 62 43.6 58.65 44.45 43.9 47.95 31.55 57.05 28.6 59.15 25.85 61.6
L 25.85 73.35
Q 27 72.1 28.25 70.85 28.6 70.4 29 70.1 30.2 68.9 31.45 67.8 51.75 49.5 79.9 49.5 91.65 49.5 102.15 52.75 106.4 54.05 110.5 55.95 119 59.85 126.5 66.2 128.7 68.1 130.85 70.2
L 130.85 61.4
Q 128.5 59.35 126.1 57.55 122.95 55.2 119.75 53.25 122.95 55.2 126.1 57.55 128.5 59.35 130.85 61.4
L 130.85 51.6
Q 127.3 48.9 123.55 46.7 121.15 45.25 118.7 44 117.3 43.3 115.9 42.65 101.85 36.2 85.55 35.15 82.3 34.9 79 34.9 75.9 34.9 72.95 35.1 75.9 34.9 79 34.9 82.3 34.9 85.55 35.15 101.85 36.2 115.9 42.65 117.3 43.3 118.7 44 121.15 45.25 123.55 46.7 127.3 48.9 130.85 51.6
L 130.85 42.95
M 113.75 50
Q 114.45 50.35 115.15 50.7 114.45 50.35 113.75 50
M 57.15 37.45
Q 58.3 37.15 59.5 36.9 58.3 37.15 57.15 37.45
M 64.65 35.95
Q 64.95 35.9 65.3 35.85 64.95 35.9 64.65 35.95
M 130.85 36.15
L 130.85 27.2 112.85 27.2
Q 116.3 28.45 119.65 30 120.25 30.25 120.85 30.55 120.9 30.6 121 30.65 126.05 33.05 130.85 36.15
M 130.85 42.95
L 130.85 36.15
Q 126.05 33.05 121 30.65 120.9 30.6 120.85 30.55 120.25 30.25 119.65 30 116.3 28.45 112.85 27.2
L 78.5 27.2 78.5 27.55
Q 78.95 27.55 79.4 27.55 100.5 27.7 118.35 35.9 122.95 38 127.3 40.65 129.1 41.75 130.85 42.95 Z"/>

<path fill="#00505F" stroke="none" d="
M 25.85 51.3
L 25.85 52.55
Q 26.65 51.9 27.5 51.3
L 25.85 51.3
M 72.7 27.7
Q 75.55 27.55 78.5 27.55
L 78.5 27.2 63.35 27.2 63.35 28.65
Q 67.9 27.95 72.7 27.7 Z"/>
</g>

<path id="carta_0_Layer0_0_1_STROKES" stroke="#CCCCCC" stroke-width="1" stroke-linejoin="round" stroke-linecap="square" fill="none" d="
M 4 0
L 151 0
Q 155 0 155 4
L 155 241
Q 155 245 151 245
L 4 245
Q 0 245 0 241
L 0 4
Q 0 0 4 0 Z"/>

<path id="carta_0_Layer0_0_2_STROKES" stroke="#000000" stroke-width="1.5" stroke-linejoin="round" stroke-linecap="round" fill="none" d="
M 78.5 27.55
Q 78.95 27.55 79.4 27.55 100.5 27.7 118.35 35.9 122.95 38 127.3 40.65 129.1 41.75 130.85 42.95
M 72.95 35.1
Q 75.9 34.9 79 34.9 82.3 34.9 85.55 35.15 101.85 36.2 115.9 42.65 117.3 43.3 118.7 44 121.15 45.25 123.55 46.7 127.3 48.9 130.85 51.6
M 25.85 61.6
Q 28.6 59.15 31.55 57.05 43.9 47.95 58.65 44.45 62 43.6 65.5 43.1 71.8 42.15 78.5 42.15 81.9 42.15 85.15 42.4 95 43.1 103.95 46.05
M 112.85 27.2
Q 116.3 28.45 119.65 30 120.25 30.25 120.85 30.55 120.9 30.6 121 30.65 126.05 33.05 130.85 36.15
M 25.85 73.35
Q 27 72.1 28.25 70.85 28.6 70.4 29 70.1 30.2 68.9 31.45 67.8 51.75 49.5 79.9 49.5 91.65 49.5 102.15 52.75 106.4 54.05 110.5 55.95 119 59.85 126.5 66.2 128.7 68.1 130.85 70.2
M 113.75 50
Q 114.45 50.35 115.15 50.7
M 87.9 72.75
Q 89.15 72.95 90.4 73.25
M 95.6 91.15
L 90.25 96.55 85.8 101.05 78.8 108.2 71.85 101.15 67.35 96.6 61.95 91.1 56.2 85.25 52.1 81.1 52.1 86.35 47.25 86.35 47.25 91.25 42.25 91.25 42.25 95.85 37.5 96.25 41.4 100.15 47.2 105.9 52.65 111.35 57.35 116 64.25 122.9 57.55 129.75 52.8 134.55 47.6 139.8 41.85 145.65 37.1 150.45 42.5 150.45 42.5 154.8 47.1 154.8 47.1 159.2 52.25 159.2 52.25 163.8 56.25 159.85 62.15 154 67.25 148.9 72.1 144.05 78.8 137.4 85.55 144.15 90.4 148.95 95.4 153.9 101.35 159.85 104.85 163.35 104.85 158.75 110 158.75 110 154.35 114.6 154.35 114.6 150 120 150 115.75 145.7 109.85 139.7 104.85 134.65 100.25 129.95 93.3 122.9 100.45 115.8 105.05 111.25 110.3 106 116.2 100.1 119.6 96.7 114.85 96.3 114.85 91.7 109.85 91.7 109.85 86.8 105 86.8 105 81.55 101.4 85.25 95.6 91.15
Q 88 86.95 78.7 86.95 69.45 86.95 61.95 91.1
M 95.5 74.7
Q 97.8 75.45 100 76.5 107.9 80.15 114.5 86.8 129.3 101.5 129.3 122.5 129.3 143.45 114.5 158.2 107.9 164.85 100 168.5 90.35 173 78.8 173
M 56.2 85.25
Q 66.2 79 78.8 79 90.55 79 100 84.4 100.7 84.8 101.4 85.25
M 25.85 97.45
Q 30 88.9 37.3 81.65 37.6 81.3 37.9 81 54.65 64.65 78.3 64.65 91.55 64.65 102.65 69.8 111.7 74 119.3 81.65 126.65 89 130.85 97.7
M 58.6 60.45
Q 68.45 57.2 79.65 57.2 94.6 57.2 107.1 63 117.35 67.75 125.95 76.4 128.6 79 130.85 81.8
M 119.75 53.25
Q 122.95 55.2 126.1 57.55 128.5 59.35 130.85 61.4
M 57.15 37.45
Q 58.3 37.15 59.5 36.9
M 63.35 28.65
Q 67.9 27.95 72.7 27.7 75.55 27.55 78.5 27.55
M 64.65 35.95
Q 64.95 35.9 65.3 35.85
M 25.85 43.15
Q 39.4 33.95 55.3 30.2 59.25 29.25 63.35 28.65
M 25.85 52.55
Q 26.65 51.9 27.5 51.3
M 25.85 85.2
Q 29.15 80.6 33.35 76.4 33.7 76 34 75.7
M 45.05 66.9
Q 47.85 65.1 50.85 63.65
M 66.7 171.65
Q 53.7 168.6 43.65 158.75 43.35 158.5 43.1 158.2 28.3 143.45 28.3 122.5 28.3 101.5 43.1 86.8 43.35 86.5 43.65 86.25 58.2 72 78.8 72 80.7 72 82.6 72.15
M 67.35 96.6
Q 72.6 94.25 78.85 94.25 85.05 94.25 90.25 96.55
M 38.05 72.05
Q 39.35 70.95 40.7 69.95
M 25.85 34.35
Q 33.1 30.1 40.95 27.2
M 27.5 51.3
Q 37.3 44.05 48.55 40.05
M 71.85 101.15
Q 75.15 100.05 78.9 100.05 82.55 100.05 85.8 101.05
M 47.6 139.8
Q 44.6 134.55 43.65 128.4 43.2 125.5 43.2 122.45 43.2 119.4 43.65 116.5 44.55 110.8 47.2 105.9
M 52.8 134.55
Q 51.25 131.1 50.7 127.25 50.35 125.05 50.35 122.75 50.35 116.55 52.65 111.35
M 57.55 129.75
Q 57.1 128.4 56.85 127.05 56.4 124.9 56.4 122.55 56.4 119.1 57.35 116
M 85.55 144.15
Q 82.4 145.05 78.9 145.05 75.3 145.05 72.1 144.05
M 100.95 184.85
Q 91 188.2 79.65 188.2 52.9 188.2 34 169.75 33.7 169.35 33.35 168.95 29.15 164.75 25.85 160.2
M 130.85 147.6
Q 126.65 156.3 119.3 163.65 111.7 171.3 102.65 175.5 91.55 180.65 78.3 180.65 54.65 180.65 37.9 164.3 37.6 164 37.3 163.65 30 156.4 25.85 147.85
M 38.55 192.85
Q 31.9 188.95 25.85 183.7
M 130.85 174.7
Q 121.5 183.85 110.5 189 96.5 195.5 79.9 195.5 50.05 195.5 29 174.9 28.6 174.5 28.25 174.05 27 172.8 25.85 171.55
M 90.4 148.95
Q 85.1 151.25 78.85 151.25 72.55 151.25 67.25 148.9
M 95.4 153.9
Q 87.9 157.95 78.7 157.95 69.55 157.95 62.15 154
M 101.35 159.85
Q 100.65 160.25 100 160.65 90.55 166 78.8 166 66.25 166 56.25 159.85
M 41.85 145.65
Q 35.3 135.45 35.3 122.5 35.3 110 41.4 100.15
M 105.05 111.25
Q 107.35 116.5 107.35 122.75 107.35 129.2 104.85 134.65
M 110.3 106
Q 114.2 113.4 114.2 122.45 114.2 132 109.85 139.7
M 100.45 115.8
Q 100.6 116.25 100.7 116.75 101.4 119.5 101.4 122.55 101.4 125.6 100.7 128.35 100.5 129.15 100.25 129.95
M 120 174.3
Q 119.5 174.7 119.05 175.05
M 115.05 177.95
Q 112.05 179.9 108.9 181.5
M 130.85 163.55
Q 128.6 166.35 125.95 168.95 124.95 169.95 123.95 170.9
M 130.85 183.85
Q 122.2 191.4 112.25 196 96.85 203.15 78.5 203.15 62.55 203.15 48.8 197.8
M 116.2 100.1
Q 122.3 110 122.3 122.5 122.3 135.45 115.75 145.7
M 130.85 202.05
Q 124.85 206.1 118.35 209.15 104.1 215.75 87.75 217.2
M 89.4 210.4
Q 88 210.55 86.6 210.65
M 98.75 208.9
Q 96.45 209.4 94.15 209.8
M 130.85 209.9
Q 125.4 213.35 119.65 216.05 118.35 216.65 116.85 217.2
M 130.85 194.15
Q 123.75 199.5 115.9 203.15 113.9 204.1 111.85 204.9
M 36.55 217.2
Q 31.05 214.85 25.85 211.85
M 69.2 217.2
Q 45.2 215.1 25.85 202
M 77.7 210.95
Q 48.2 210.55 25.85 193.35"/>

<path id="carta_0_Layer0_0_3_STROKES" stroke="#000000" stroke-width="1.5" stroke-linejoin="round" stroke-linecap="square" fill="none" d="
M 78.5 27.2
L 112.85 27.2 130.85 27.2 130.85 36.15 130.85 42.95 130.85 51.6 130.85 61.4 130.85 70.2 130.85 81.8 130.85 97.7 130.85 147.6 130.85 163.55 130.85 174.7 130.85 183.85 130.85 194.15 130.85 202.05 130.85 209.9 130.85 217.2 116.85 217.2 87.75 217.2 69.2 217.2 36.55 217.2 25.85 217.2 25.85 211.85 25.85 202 25.85 193.35 25.85 183.7 25.85 171.55 25.85 160.2 25.85 147.85 25.85 97.45 25.85 85.2 25.85 73.35 25.85 61.6 25.85 52.55 25.85 51.3 25.85 43.15 25.85 34.35 25.85 27.2 40.95 27.2 63.35 27.2 78.5 27.2 Z"/>

<path id="carta_0_Layer0_0_4_STROKES" stroke="#000000" stroke-width="1" stroke-linejoin="round" stroke-linecap="square" fill="none" d="
M 17.5 18.65
L 139.5 18.65 139.5 226.65 17.5 226.65 17.5 18.65 Z
M 13.7 15.65
L 142.7 15.65 142.7 229.65 13.7 229.65 13.7 15.65 Z"/>
</defs>

<g transform="matrix( 1, 0, 0, 1, 0,0) ">
<g transform="matrix( 1, 0, 0, 1, 0,0) ">
<use xlink:href="#carta_0_Layer0_0_FILL"/>

<use xlink:href="#carta_0_Layer0_0_1_STROKES"/>

<use xlink:href="#carta_0_Layer0_0_2_STROKES"/>

<use xlink:href="#carta_0_Layer0_0_3_STROKES"/>

<use xlink:href="#carta_0_Layer0_0_4_STROKES"/>
</g>
</g>
</svg>
