
<svg xmlns="http://www.w3.org/2000/svg" version="1.1" xmlns:xlink="http://www.w3.org/1999/xlink" preserveAspectRatio="none" x="0px" y="0px" width="150px" height="220px" viewBox="0 0 150 220">
<defs>
<g id="wolverine_0_Layer0_0_FILL">
<path fill="#02A5EC" stroke="none" d="
M 107.35 274
Q 108.05 274.1 108.75 274.2
L 136.4 278.6
Q 155.55 280.5 157.45 271.85 158.6 266.5 154.25 262.1
L 141.65 251.95 143.15 242.95 103.75 247.25 100.35 259.35
Q 99.25 262.4 99.15 264.9 98.75 272.25 107.35 274
M 81.6 274.2
Q 82.3 274.1 83 274 91.6 272.25 91.25 264.9 91.1 262.4 90 259.35
L 86.6 247.25 47.2 242.95 48.7 251.95 36.1 262.1
Q 31.75 266.5 32.9 271.85 34.8 280.5 53.95 278.6
L 81.6 274.2
M 138.95 216.05
L 141.85 215.2 138.5 201.1 114 201.1 114 205.35 113.6 205.35 76.75 205.35 76.35 205.35 76.35 201.1 51.85 201.1 48.5 215.2 51.4 216.05 86.6 225.85 103.75 225.85 138.95 216.05
M 150.35 140.05
L 152.85 134.25 136.35 131.5 133.35 167.25 137.35 170.25 138.65 167.25 150.35 140.05
M 22.3 165.8
Q 15.95 178.65 13.25 193 10.05 212.1 30 212.1 42.25 211.45 43.25 199.6 47.1 204.45 50 199.6 51.05 188.95 42.75 184
L 46.35 177.25 22.3 165.8
M 37.5 134.25
L 40 140.05 51.7 167.25 53 170.25 57 167.25 54 131.5 37.5 134.25
M 177.1 193
Q 174.4 178.65 168.05 165.8
L 144 177.25 147.6 184
Q 139.3 188.95 140.35 199.6 143.25 204.45 147.1 199.6 148.1 211.45 160.35 212.1 180.3 212.1 177.1 193 Z"/>

<path fill="#F5E707" stroke="none" d="
M 86.6 247.25
Q 83.9 236.55 86.6 225.85
L 51.4 216.05
Q 45.85 229.2 47.2 242.95
L 86.6 247.25
M 143.15 242.95
Q 144.5 229.2 138.95 216.05
L 103.75 225.85
Q 106.45 236.55 103.75 247.25
L 143.15 242.95
M 61.95 130
L 54 131.5 57 167.25 55.5 190 76.35 190 76.35 186.25 76.75 186.25 113.6 186.25 114 186.25 114 190 134.85 190 133.35 167.25 136.35 131.5 128.4 130 123.85 153.6 120.35 131.15
Q 112.5 132 103.5 132.15 99.45 132.15 95.2 132.1 90.9 132.15 86.85 132.15 77.8 132 70 131.15
L 66.5 153.6 61.95 130
M 95.85 0
L 94.5 0
Q 36.55 1.8 23.5 33.9 38.6 42.45 55.75 47.25 92.25 54.3 92.5 77.25
L 92.5 93.5 97.85 93.5 97.85 77.25
Q 98.1 54.3 134.6 47.25 151.75 42.45 166.85 33.9 153.8 1.8 95.85 0 Z"/>

<path fill="#050301" stroke="none" d="
M 113.6 186.25
L 76.75 186.25 76.75 205.35 113.6 205.35 113.6 186.25
M 78.75 188.5
L 80 188.5 91.1 195.3 79 202.5 78.75 202.5 78.75 188.5
M 99.25 195.3
L 110.35 188.5 111.6 188.5 111.6 202.5 111.35 202.5 99.25 195.3
M 95.2 192.95
L 87.6 188.5 102.75 188.5 95.2 192.95
M 103.1 202.5
L 87.25 202.5 95.2 197.8 103.1 202.5 Z"/>

<path fill="#C32233" stroke="none" d="
M 87.25 202.5
L 103.1 202.5 95.2 197.8 87.25 202.5
M 87.6 188.5
L 95.2 192.95 102.75 188.5 87.6 188.5
M 110.35 188.5
L 99.25 195.3 111.35 202.5 111.6 202.5 111.6 188.5 110.35 188.5
M 80 188.5
L 78.75 188.5 78.75 202.5 79 202.5 91.1 195.3 80 188.5 Z"/>

<path fill="#000600" stroke="none" d="
M 128.4 130
Q 124.55 130.7 120.35 131.15
L 123.85 153.6 128.4 130
M 70 131.15
Q 65.8 130.7 61.95 130
L 66.5 153.6 70 131.15 Z"/>

<path fill="#C42233" stroke="none" d="
M 138.5 190
L 134.85 190 114 190 114 201.1 138.5 201.1 138.5 190
M 55.5 190
L 51.85 190 51.85 201.1 76.35 201.1 76.35 190 55.5 190 Z"/>

<path fill="#000000" stroke="none" d="
M 114 186.25
L 113.6 186.25 113.6 205.35 114 205.35 114 201.1 114 190 114 186.25
M 76.35 186.25
L 76.35 190 76.35 201.1 76.35 205.35 76.75 205.35 76.75 186.25 76.35 186.25
M 190.35 17.25
Q 179.3 26.85 166.85 33.9 151.75 42.45 134.6 47.25 98.1 54.3 97.85 77.25
L 97.85 93.5 92.5 93.5 92.5 77.25
Q 92.25 54.3 55.75 47.25 38.6 42.45 23.5 33.9 11.05 26.85 0 17.25
L 0 67.25
Q 0.75 90.55 20 95.8 26.85 97.65 36 97.25
L 154.35 97.25
Q 163.5 97.65 170.35 95.8 189.6 90.55 190.35 67.25
L 190.35 17.25
M 146.35 61
Q 152.25 61 156.45 65.15 160.6 69.35 160.6 75.25 160.6 81.15 156.45 85.3 152.25 89.5 146.35 89.5 140.45 89.5 136.3 85.3 132.1 81.15 132.1 75.25 132.1 71.8 133.55 69 134.55 66.9 136.3 65.15 140.45 61 146.35 61
M 31.3 68.75
Q 32.25 66.8 33.9 65.15 38.1 61 44 61 49.9 61 54.05 65.15 58.25 69.35 58.25 75.25 58.25 81.15 54.05 85.3 49.9 89.5 44 89.5 38.1 89.5 33.9 85.3 29.75 81.15 29.75 75.25 29.75 71.7 31.3 68.75 Z"/>

<path fill="#D9B594" stroke="none" d="
M 40 140.05
Q 36.7 143.65 33.8 147.45 32.75 148.75 31.8 150.1 31.15 150.95 30.6 151.8 29.15 153.8 27.85 155.9 26.8 157.55 25.8 159.25 23.9 162.45 22.3 165.8
L 46.35 177.25 51.7 167.25 40 140.05
M 37.25 157.25
L 33.25 153.75 37.25 157.25
M 40 156.15
L 34.85 152.35 40 156.15
M 36 164.25
L 30 161.5 36 164.25
M 36.05 159.95
L 30 157.25 36.05 159.95
M 41.9 153.55
L 36.35 149.35 41.9 153.55
M 168.05 165.8
Q 166.4 162.5 164.55 159.25 163.55 157.55 162.5 155.9 161.2 153.8 159.8 151.8 159.2 150.95 158.6 150.1 157.6 148.75 156.6 147.45 153.65 143.65 150.35 140.05
L 138.65 167.25 144 177.25 168.05 165.8
M 153.1 157.25
L 157.1 153.75 153.1 157.25
M 154.35 159.95
L 160.35 157.25 154.35 159.95
M 148.4 153.6
L 154 149.35 148.4 153.6
M 150.35 156.15
L 155.5 152.35 150.35 156.15
M 154.35 164.25
L 160.35 161.5 154.35 164.25 Z"/>

<path fill="#E2B297" stroke="none" d="
M 36 97.25
Q 26.85 97.65 20 95.8 23.55 111.25 40 123 49 127.7 61.95 130 65.8 130.7 70 131.15 77.8 132 86.85 132.15 90.9 132.15 95.2 132.1 99.45 132.15 103.5 132.15 112.5 132 120.35 131.15 124.55 130.7 128.4 130 141.35 127.7 150.35 123 166.8 111.25 170.35 95.8 163.5 97.65 154.35 97.25
L 36 97.25
M 95 120.8
Q 108.95 121 114.2 110.75 108.95 121 95 120.8 94.5 120.8 93.95 120.8 80 120.75 74.75 110.5 80 120.75 93.95 120.8 94.5 120.8 95 120.8 Z"/>

<path fill="#ACACAC" stroke="none" d="
M 33.9 65.15
Q 32.25 66.8 31.3 68.75 29.75 71.7 29.75 75.25 29.75 81.15 33.9 85.3 38.1 89.5 44 89.5 49.9 89.5 54.05 85.3 58.25 81.15 58.25 75.25 58.25 69.35 54.05 65.15 49.9 61 44 61 38.1 61 33.9 65.15
M 37.6 68.35
Q 38.95 68.35 39.85 69.25 40.8 70.2 40.8 71.55 40.8 72.9 39.85 73.8 38.95 74.75 37.6 74.75 36.25 74.75 35.3 73.8 34.4 72.9 34.4 71.55 34.4 70.9 34.65 70.3 34.85 69.75 35.3 69.25 36.25 68.35 37.6 68.35
M 156.45 65.15
Q 152.25 61 146.35 61 140.45 61 136.3 65.15 134.55 66.9 133.55 69 132.1 71.8 132.1 75.25 132.1 81.15 136.3 85.3 140.45 89.5 146.35 89.5 152.25 89.5 156.45 85.3 160.6 81.15 160.6 75.25 160.6 69.35 156.45 65.15
M 136.05 71.55
Q 136.05 70.85 136.3 70.3 136.55 69.7 137 69.25 137.9 68.35 139.25 68.35 140.6 68.35 141.55 69.25 142.45 70.2 142.45 71.55 142.45 72.9 141.55 73.8 140.6 74.75 139.25 74.75 137.9 74.75 137 73.8 136.05 72.9 136.05 71.55 Z"/>

<path fill="#FFFFFF" stroke="none" d="
M 39.85 69.25
Q 38.95 68.35 37.6 68.35 36.25 68.35 35.3 69.25 34.85 69.75 34.65 70.3 34.4 70.9 34.4 71.55 34.4 72.9 35.3 73.8 36.25 74.75 37.6 74.75 38.95 74.75 39.85 73.8 40.8 72.9 40.8 71.55 40.8 70.2 39.85 69.25
M 136.3 70.3
Q 136.05 70.85 136.05 71.55 136.05 72.9 137 73.8 137.9 74.75 139.25 74.75 140.6 74.75 141.55 73.8 142.45 72.9 142.45 71.55 142.45 70.2 141.55 69.25 140.6 68.35 139.25 68.35 137.9 68.35 137 69.25 136.55 69.7 136.3 70.3 Z"/>
</g>

<path id="wolverine_0_Layer0_0_1_STROKES" stroke="#000000" stroke-width="1" stroke-linejoin="round" stroke-linecap="round" fill="none" d="
M 37.25 157.25
L 33.25 153.75
M 40 156.15
L 34.85 152.35
M 36 164.25
L 30 161.5
M 36.05 159.95
L 30 157.25
M 41.9 153.55
L 36.35 149.35
M 74.75 110.5
Q 80 120.75 93.95 120.8 94.5 120.8 95 120.8 108.95 121 114.2 110.75
M 153.1 157.25
L 157.1 153.75
M 154.35 159.95
L 160.35 157.25
M 148.4 153.6
L 154 149.35
M 150.35 156.15
L 155.5 152.35
M 154.35 164.25
L 160.35 161.5"/>
</defs>

<g transform="matrix( 0.78802490234375, 0, 0, 0.788665771484375, 0,0) ">
<g transform="matrix( 1, 0, 0, 1, 0,0) ">
<use xlink:href="#wolverine_0_Layer0_0_FILL"/>

<use xlink:href="#wolverine_0_Layer0_0_1_STROKES"/>
</g>
</g>
</svg>
