
<svg xmlns="http://www.w3.org/2000/svg" version="1.1" xmlns:xlink="http://www.w3.org/1999/xlink" preserveAspectRatio="none" x="0px" y="0px" width="150px" height="118px" viewBox="0 0 150 118">
<defs>
<g id="wolverine_0_Layer0_0_FILL">
<path fill="#000600" stroke="none" d="
M 123.2 149.6
L 124.6 149.6 128.4 130
Q 124.55 130.7 120.35 131.15
L 123.2 149.6
M 70 131.15
Q 65.8 130.7 61.95 130
L 65.7 149.6 67.1 149.6 70 131.15 Z"/>

<path fill="#D9B594" stroke="none" d="
M 156.6 147.45
Q 153.65 143.65 150.35 140.05
L 146.25 149.6 153.65 149.6 154 149.35 153.65 149.6 158.2 149.6
Q 157.4140625 148.5083984375 156.6 147.45
M 40 140.05
Q 36.7 143.65 33.8 147.45 32.9451171875 148.5083984375 32.15 149.6
L 36.65 149.6 36.35 149.35 36.65 149.6 44.1 149.6 40 140.05 Z"/>

<path fill="#02A5EC" stroke="none" d="
M 150.35 140.05
L 152.85 134.25 136.35 131.5 134.8 149.6 146.25 149.6 150.35 140.05
M 37.5 134.25
L 40 140.05 44.1 149.6 55.5 149.6 54 131.5 37.5 134.25 Z"/>

<path fill="#F5E707" stroke="none" d="
M 136.35 131.5
L 128.4 130 124.6 149.6 134.8 149.6 136.35 131.5
M 70 131.15
L 67.1 149.6 123.2 149.6 120.35 131.15
Q 112.5 132 103.5 132.15 99.45 132.15 95.2 132.1 90.9 132.15 86.85 132.15 77.8 132 70 131.15
M 61.95 130
L 54 131.5 55.5 149.6 65.7 149.6 61.95 130
M 95.85 0
L 94.5 0
Q 36.55 1.8 23.5 33.9 38.6 42.45 55.75 47.25 92.25 54.3 92.5 77.25
L 92.5 93.5 97.85 93.5 97.85 77.25
Q 98.1 54.3 134.6 47.25 151.75 42.45 166.85 33.9 153.8 1.8 95.85 0 Z"/>

<path fill="#E2B297" stroke="none" d="
M 36 97.25
Q 26.85 97.65 20 95.8 23.55 111.25 40 123 49 127.7 61.95 130 65.8 130.7 70 131.15 77.8 132 86.85 132.15 90.9 132.15 95.2 132.1 99.45 132.15 103.5 132.15 112.5 132 120.35 131.15 124.55 130.7 128.4 130 141.35 127.7 150.35 123 166.8 111.25 170.35 95.8 163.5 97.65 154.35 97.25
L 36 97.25
M 95 120.8
Q 108.95 121 114.2 110.75 108.95 121 95 120.8 94.5 120.8 93.95 120.8 80 120.75 74.75 110.5 80 120.75 93.95 120.8 94.5 120.8 95 120.8 Z"/>

<path fill="#000000" stroke="none" d="
M 190.35 17.25
Q 179.3 26.85 166.85 33.9 151.75 42.45 134.6 47.25 98.1 54.3 97.85 77.25
L 97.85 93.5 92.5 93.5 92.5 77.25
Q 92.25 54.3 55.75 47.25 38.6 42.45 23.5 33.9 11.05 26.85 0 17.25
L 0 67.25
Q 0.75 90.55 20 95.8 26.85 97.65 36 97.25
L 154.35 97.25
Q 163.5 97.65 170.35 95.8 189.6 90.55 190.35 67.25
L 190.35 17.25
M 146.35 61
Q 152.25 61 156.45 65.15 160.6 69.35 160.6 75.25 160.6 81.15 156.45 85.3 152.25 89.5 146.35 89.5 140.45 89.5 136.3 85.3 132.1 81.15 132.1 75.25 132.1 71.8 133.55 69 134.55 66.9 136.3 65.15 140.45 61 146.35 61
M 31.3 68.75
Q 32.25 66.8 33.9 65.15 38.1 61 44 61 49.9 61 54.05 65.15 58.25 69.35 58.25 75.25 58.25 81.15 54.05 85.3 49.9 89.5 44 89.5 38.1 89.5 33.9 85.3 29.75 81.15 29.75 75.25 29.75 71.7 31.3 68.75 Z"/>

<path fill="#ACACAC" stroke="none" d="
M 33.9 65.15
Q 32.25 66.8 31.3 68.75 29.75 71.7 29.75 75.25 29.75 81.15 33.9 85.3 38.1 89.5 44 89.5 49.9 89.5 54.05 85.3 58.25 81.15 58.25 75.25 58.25 69.35 54.05 65.15 49.9 61 44 61 38.1 61 33.9 65.15
M 35.3 73.8
Q 34.4 72.9 34.4 71.55 34.4 70.9 34.65 70.3 34.85 69.75 35.3 69.25 36.25 68.35 37.6 68.35 38.95 68.35 39.85 69.25 40.8 70.2 40.8 71.55 40.8 72.9 39.85 73.8 38.95 74.75 37.6 74.75 36.25 74.75 35.3 73.8
M 156.45 65.15
Q 152.25 61 146.35 61 140.45 61 136.3 65.15 134.55 66.9 133.55 69 132.1 71.8 132.1 75.25 132.1 81.15 136.3 85.3 140.45 89.5 146.35 89.5 152.25 89.5 156.45 85.3 160.6 81.15 160.6 75.25 160.6 69.35 156.45 65.15
M 136.05 71.55
Q 136.05 70.85 136.3 70.3 136.55 69.7 137 69.25 137.9 68.35 139.25 68.35 140.6 68.35 141.55 69.25 142.45 70.2 142.45 71.55 142.45 72.9 141.55 73.8 140.6 74.75 139.25 74.75 137.9 74.75 137 73.8 136.05 72.9 136.05 71.55 Z"/>

<path fill="#FFFFFF" stroke="none" d="
M 34.4 71.55
Q 34.4 72.9 35.3 73.8 36.25 74.75 37.6 74.75 38.95 74.75 39.85 73.8 40.8 72.9 40.8 71.55 40.8 70.2 39.85 69.25 38.95 68.35 37.6 68.35 36.25 68.35 35.3 69.25 34.85 69.75 34.65 70.3 34.4 70.9 34.4 71.55
M 136.3 70.3
Q 136.05 70.85 136.05 71.55 136.05 72.9 137 73.8 137.9 74.75 139.25 74.75 140.6 74.75 141.55 73.8 142.45 72.9 142.45 71.55 142.45 70.2 141.55 69.25 140.6 68.35 139.25 68.35 137.9 68.35 137 69.25 136.55 69.7 136.3 70.3 Z"/>
</g>

<path id="wolverine_0_Layer0_0_1_STROKES" stroke="#000000" stroke-width="1" stroke-linejoin="round" stroke-linecap="round" fill="none" d="
M 36.675 149.6
L 36.35 149.35
M 74.75 110.5
Q 80 120.75 93.95 120.8 94.5 120.8 95 120.8 108.95 121 114.2 110.75
M 153.675 149.6
L 154 149.35"/>
</defs>

<g transform="matrix( 0.78802490234375, 0, 0, 0.788665771484375, 0,0) ">
<g transform="matrix( 1, 0, 0, 1, 0,0) ">
<use xlink:href="#wolverine_0_Layer0_0_FILL"/>

<use xlink:href="#wolverine_0_Layer0_0_1_STROKES"/>
</g>
</g>
</svg>
